<?xml version="1.0" encoding="utf-8"?>
<!-- Generator: Adobe Illustrator 25.0.1, SVG Export Plug-In . SVG Version: 6.00 Build 0)  -->
<svg version="1.1" id="Layer_1" xmlns="http://www.w3.org/2000/svg" xmlns:xlink="http://www.w3.org/1999/xlink" x="0px" y="0px"
	 viewBox="0 0 1008 792" style="enable-background:new 0 0 1008 792;" xml:space="preserve">
<style type="text/css">
	.st0{fill:#FFFFFF;}
</style>
<g>
	<path class="st0" d="M369.37,402.94c0-19.26,0-38.52,0-57.93c9.1,0,17.85,0,26.75,0c0,33.85,0,67.53,0,101.5
		c-0.93,0.06-1.84,0.16-2.74,0.16c-7.01,0.01-14.02-0.06-21.03,0.05c-1.93,0.03-3.09-0.68-4.25-2.13
		c-13.14-16.53-26.34-33.02-39.53-49.52c-0.67-0.84-1.39-1.65-2.09-2.48c-0.18,0.07-0.36,0.15-0.53,0.22c0,17.84,0,35.68,0,53.69
		c-8.97,0-17.64,0-26.32,0c-0.59-1.94-0.83-96.5-0.22-101.52c0.86-0.05,1.77-0.14,2.68-0.15c7.1-0.01,14.21,0.06,21.31-0.05
		c1.9-0.03,3.07,0.56,4.2,2.11c13.02,17.93,26.12,35.8,39.21,53.69c0.61,0.83,1.25,1.64,1.87,2.45
		C368.9,403.02,369.14,402.98,369.37,402.94z"/>
	<path class="st0" d="M167.71,398.54c0-26.93,19.13-49.87,44.91-54.24c21.79-3.69,40.2,2.85,54.14,20.02
		c19.46,23.97,14.48,58.78-10.54,77.14c-29.13,21.37-71.11,9.71-84.61-23.5C168.98,411.48,167.66,404.75,167.71,398.54z
		 M195.58,397.65c-0.03,15,12.16,27.13,27.35,27.22c15.24,0.09,27.89-12.25,27.83-27.14c-0.06-14.82-12.51-27.05-27.61-27.13
		C208.08,370.51,195.62,382.74,195.58,397.65z"/>
	<path class="st0" d="M728.88,404.6c6.72,14.03,13.46,28.08,20.34,42.43c-10.41,0-20.4,0-30.58,0c-0.45-0.79-0.98-1.67-1.46-2.59
		c-6.04-11.48-12.1-22.94-18.06-34.45c-0.89-1.71-1.87-2.54-3.9-2.43c-3.47,0.18-6.96,0.05-10.69,0.05c0,13.26,0,26.2,0,39.49
		c-7.96,0.21-15.67,0.05-23.34,0.1c-0.67-2.17-0.96-93.85-0.34-100.27c0.66-0.08,1.37-0.24,2.09-0.24
		c18.57-0.01,37.13-0.01,55.7-0.01c0.57,0,1.16-0.05,1.7,0.1c11.53,3.18,20.55,9.47,24.32,21.28c3.62,11.34,0.38,21.31-7.72,29.73
		C734.57,400.22,731.75,402.19,728.88,404.6z M684.05,385.71c3.45,0,6.65,0,9.85,0c5.58,0,11.16,0.03,16.74-0.01
		c3.51-0.03,5.69-1.56,6.83-4.51c1.68-4.36-0.54-10.22-6.99-10.13c-8.13,0.12-16.27,0.02-24.4,0.04c-0.63,0-1.27,0.13-2.02,0.21
		C684.05,376.05,684.05,380.65,684.05,385.71z"/>
	<path class="st0" d="M960.53,423.08c0,8.02,0,15.56,0,23.09c-2.05,0.65-75.82,0.92-81.43,0.33c-0.63-1.95-0.84-97.41-0.19-101.45
		c27.09,0,54.22,0,81.55,0c0,7.94,0,15.84,0,24.17c-3.66,0.01-7.31,0.02-10.96,0.02c-3.6,0-7.2,0-10.8,0c-3.69,0-7.39,0-11.08,0
		c-3.6,0-7.2,0-10.8,0c-3.67,0-7.35,0-11.21,0c0,5.4,0,10.55,0,16c16.43,0,32.77,0,49.28,0c0,7.07,0,13.84,0,20.92
		c-16.42,0-32.75,0-49.28,0c0,5.75,0,11.19,0,16.91C923.89,423.08,942.04,423.08,960.53,423.08z"/>
	<path class="st0" d="M624.87,406.21c-16.5,0-32.83,0-49.33,0c0,5.75,0,11.18,0,16.88c18.3,0,36.45,0,54.52,0
		c0.63,2.27,0.82,18.2,0.35,23.12c-1.96,0.59-76.63,0.84-81.56,0.24c0-33.72,0-67.47,0-101.41c27.16,0,54.28,0,81.56,0
		c0,8.03,0,15.93,0,24.18c-18.31,0-36.53,0-54.89,0c0,5.42,0,10.49,0,15.9c3.23,0.34,6.51,0.1,9.78,0.15
		c3.31,0.04,6.63,0.01,9.94,0.01c3.22,0,6.44,0,9.66,0c3.31,0,6.63,0,9.94,0c3.29,0,6.58,0,10.02,0
		C624.87,392.37,624.87,399.13,624.87,406.21z"/>
	<path class="st0" d="M780.74,414.95c2.49,1.99,4.71,3.9,7.08,5.62c5.42,3.93,11.29,6.96,17.96,8.09c5.79,0.98,11.52,0.53,17.06-1.5
		c1.4-0.51,2.77-1.29,3.92-2.22c2.93-2.38,3.13-5.82,0.33-8.33c-1.59-1.43-3.51-2.6-5.46-3.49c-5.28-2.42-10.89-3.96-16.63-4.58
		c-10.18-1.1-18.76-5.54-26.58-11.79c-3.13-2.5-5.79-5.45-7.79-8.95c-4.24-7.4-3.84-15.05-1.05-22.74c2.4-6.63,6.8-11.78,12.5-15.79
		c9.6-6.76,20.32-9.98,32.07-9.46c4.37,0.19,8.59,1.39,12.68,2.89c9.22,3.38,17.61,8.31,25.51,14.09c0.31,0.22,0.64,0.42,1.1,0.72
		c-6.07,6.55-11.92,12.86-17.9,19.31c-0.77-0.56-1.45-1.02-2.1-1.52c-5.39-4.09-11.04-7.74-17.78-9.11
		c-5.17-1.05-10.22-0.48-14.77,2.41c-4.03,2.56-4.65,6.8-1.54,10.42c0.96,1.12,2.2,2.14,3.51,2.82c2.09,1.08,4.28,2.15,6.55,2.64
		c4.05,0.87,8.2,1.32,12.31,1.93c0.65,0.1,1.34,0.01,1.98,0.17c8.9,2.22,16.87,6.09,23.24,12.89c11.46,12.23,10.04,35.02-6.21,45.03
		c-6.44,3.97-13.49,6.04-20.92,6.57c-16.42,1.16-32-2.18-46.7-9.53c-2.27-1.13-4.37-2.64-6.45-4.11c-0.98-0.7-1.77-1.7-2.56-2.64
		c-0.76-0.91-0.78-1.78,0.15-2.74C769.73,426.41,775.16,420.74,780.74,414.95z"/>
	<path class="st0" d="M132.25,412.03c7.79,5.64,15.43,11.17,23.12,16.74c-1.97,2.04-3.59,4.03-5.5,5.67
		c-9.71,8.34-20.81,13.92-33.62,15.27c-17.25,1.82-33.21-1.63-46.69-13.25c-8.76-7.55-13.58-17.37-15.36-28.69
		c-4.52-28.65,13.04-52.57,34.33-61.52c7.99-3.36,16.3-4.9,24.96-4.24c5.75,0.44,11.09,2.36,16.23,4.84
		c10.07,4.86,18.92,11.48,27.06,19.08c0.33,0.3,0.59,0.68,1.09,1.27c-9.08,5.29-17.96,10.46-26.76,15.58
		c-0.32-0.17-0.56-0.21-0.63-0.34c-5.26-9.08-13.63-11.98-23.43-11.17c-12.46,1.04-21.54,9.44-24.18,21.69
		c-2.99,13.84,6.95,28.46,20.91,30.97c5.17,0.93,9.96,0.09,14.62-2.14c4.65-2.23,8.76-5.25,12.58-8.68
		C131.3,412.81,131.67,412.52,132.25,412.03z"/>
	<path class="st0" d="M529.57,345.01c-12.03,34.01-23.96,67.77-35.91,101.56c-13.37,0-26.51,0-39.88,0
		c-11.94-33.77-23.88-67.53-35.91-101.55c9.91,0,19.51,0,29.32,0c8.76,26.53,17.51,53.05,26.27,79.57c0.18-0.03,0.36-0.05,0.55-0.08
		c8.73-26.47,17.47-52.93,26.24-79.51C509.98,345.01,519.58,345.01,529.57,345.01z"/>
</g>
</svg>
